<svg width="15" height="11" viewBox="0 0 15 11" fill="none" xmlns="http://www.w3.org/2000/svg">
<path d="M13.4402 11H1.18774C0.500102 11 0 10.4107 0 9.75595V1.24405C0 0.52381 0.562615 0 1.18774 0H13.4402C14.1279 0 14.628 0.589286 14.628 1.24405V9.75595C14.628 10.4762 14.0654 11 13.4402 11ZM1.18774 0.458334C0.812666 0.458334 0.437589 0.785714 0.437589 1.24405V9.75595C0.437589 10.2143 0.750153 10.5417 1.18774 10.5417H13.4402C13.8778 10.5417 14.1904 10.2143 14.1904 9.75595V1.24405C14.1904 0.785714 13.8778 0.458334 13.4402 0.458334H1.18774Z" fill="white"/>
<path d="M7.31363 5.76172C7.25111 5.76172 7.12609 5.69625 7.12609 5.63077C7.06357 5.49982 7.12609 5.36887 7.25111 5.30339L14.3151 1.7022C14.4401 1.63672 14.5651 1.7022 14.6276 1.83315C14.6901 1.96411 14.6276 2.09506 14.5026 2.16053L7.43865 5.76172C7.37614 5.76172 7.37614 5.76172 7.31363 5.76172Z" fill="white"/>
<path d="M7.31401 5.76197C7.2515 5.76197 7.2515 5.76197 7.18899 5.76197L0.187559 1.70245C0.0625334 1.63697 0.0625334 1.50602 0.125046 1.37507C0.187559 1.30959 0.312584 1.24412 0.43761 1.30959L7.43904 5.30364C7.56407 5.36912 7.56406 5.50007 7.56406 5.63102C7.50155 5.6965 7.37653 5.76197 7.31401 5.76197Z" fill="white"/>
</svg>
