<svg width="80" height="22" viewBox="0 0 80 22" fill="none" xmlns="http://www.w3.org/2000/svg">
<g clip-path="url(#clip0_2531_453)">
<path d="M48.1703 14.4518C48.2749 17.2012 50.763 19.9657 53.6172 19.9657C54.7978 19.9657 55.7616 19.67 56.4864 19.101C57.2037 18.5244 57.5697 17.7705 57.5697 16.8392C57.5697 16.063 57.3306 15.4201 56.8599 14.9249C56.3818 14.4224 55.2908 13.8163 53.5872 13.1217C51.0394 12.0795 49.2985 11.0593 48.3719 10.0765C47.4453 9.09339 46.9822 7.85178 46.9822 6.36606C46.9822 4.51828 47.6546 3.0031 48.9995 1.82791C50.3444 0.652616 52.0778 0.0983846 54.1998 0.0614289C55.7614 0.0318644 59.303 0.423594 60.4685 1.15532L60.4536 6.45475H59.2805C59.2357 3.92699 57.0763 1.77607 54.5358 1.77607C53.4898 1.77607 52.6679 2.03486 52.0553 2.54474C51.4502 3.05473 51.1438 3.7495 51.1438 4.62165C51.1438 5.39772 51.383 6.02597 51.8536 6.50639C52.3243 6.9942 53.4376 7.58549 55.1786 8.28765C55.5302 8.43902 55.8865 8.57952 56.247 8.70894C58.0701 9.43327 59.3104 10.0763 59.9531 10.6453C60.6179 11.2589 61.1186 11.9242 61.4399 12.6483C61.7537 13.3653 61.918 14.1932 61.918 15.1318C61.918 17.1791 61.2007 18.8125 59.7736 20.0394C58.3465 21.2665 56.4038 21.8798 53.9756 21.8798C51.4353 21.8798 48.9545 21.4069 46.6458 20.3352V14.4666L48.1703 14.4518ZM66.252 14.5701C66.3566 17.3121 68.8447 20.0766 71.6914 20.0766C72.8794 20.0766 73.8433 19.7882 74.5606 19.2116C75.2852 18.6352 75.6514 17.8813 75.6514 16.9574C75.6514 16.1739 75.4122 15.5383 74.9341 15.0356C74.4634 14.5332 73.3726 13.9271 71.6691 13.2324C69.1211 12.1903 67.3802 11.1701 66.4536 10.1873C65.5271 9.20415 65.0565 7.96983 65.0565 6.48422C65.0565 4.63643 65.7364 3.12125 67.0738 1.94606C68.4188 0.763483 70.1596 0.209149 72.2816 0.172193C73.8433 0.142629 77.3849 0.541852 78.5429 1.26608L78.5355 6.56552H77.3625C77.3175 4.03775 75.1508 1.89433 72.6103 1.89433C71.5717 1.89433 70.7424 2.15302 70.1372 2.663C69.532 3.17299 69.2257 3.86776 69.2257 4.73252C69.2257 5.50859 69.4648 6.14422 69.9355 6.62465C70.4063 7.10507 71.5195 7.70375 73.2605 8.39841C73.4996 8.50199 73.8583 8.64982 74.3215 8.8272C76.1521 9.54414 77.3923 10.1946 78.0349 10.7562C78.6999 11.3771 79.2004 12.0422 79.5144 12.7592C79.8357 13.4761 80.0001 14.3114 80.0001 15.25C80.0001 17.2974 79.2829 18.9309 77.8557 20.1578C76.4211 21.3774 74.4858 21.9982 72.0502 21.9982C69.5099 21.9982 67.0291 21.5178 64.7278 20.4462L64.7204 14.585L66.252 14.5701ZM12.9261 10.1502C16.266 9.69936 17.7305 7.81462 17.7305 5.26468C17.7305 3.71993 17.185 2.52996 16.0942 1.71694C15.0108 0.896524 13.4342 0.48262 11.3795 0.490012L0.179322 0.497403V1.68009C1.53171 1.68009 2.61511 1.8353 2.61511 2.40442L2.60017 19.7292C2.03979 20.2688 0.747176 20.3428 0 20.3428V21.5548H11.6335C15.0108 21.5548 18.4627 20.3206 18.8438 16.1964C19.1799 12.5154 16.9309 10.2907 12.9261 10.1502ZM7.5912 1.86476C7.60614 1.86476 7.63614 1.85737 7.67339 1.84998C8.15158 1.82041 8.51023 1.80563 8.73438 1.80563C10.2511 1.80563 11.357 2.15302 12.0594 2.84039C12.7618 3.52037 13.1204 4.62894 13.1204 6.14422C13.1204 7.52636 12.7842 8.52417 12.1192 9.12285C11.4542 9.72892 10.3633 10.032 8.85403 10.032H7.5912V1.86476ZM7.5912 19.8103V11.3106H9.5488C11.7231 11.3106 13.8451 12.5006 13.8451 15.6714C13.8452 19.3225 10.7891 20.4018 7.5912 19.8103ZM40.5939 2.93637C38.6214 0.977826 35.8868 0.00219727 32.3825 0.00219727C28.9231 0.00219727 26.2108 0.992608 24.2457 2.96604C22.2806 4.93947 21.2944 7.66679 21.2944 11.1406C21.2944 14.5036 22.2583 17.1349 24.186 19.0343C26.1137 20.9338 28.796 21.8798 32.2405 21.8798C35.7822 21.8798 38.5541 20.9191 40.5566 19.0047C42.5589 17.0906 43.5601 14.4444 43.5601 11.0814C43.5602 7.60767 42.5665 4.88773 40.5939 2.93637ZM36.6414 17.5561C35.573 19.2339 34.1384 20.0766 32.3526 20.0766C30.6118 20.0766 29.2219 19.2339 28.1835 17.5636C27.1448 15.8933 26.6218 13.6167 26.6218 10.7563C26.6218 7.94037 27.1598 5.69347 28.2357 4.03046C29.3041 2.36746 30.7388 1.53965 32.5246 1.53965C34.2356 1.53965 35.6252 2.37485 36.6713 4.03785C37.7174 5.70815 38.2403 7.93298 38.2403 10.7045C38.2405 13.5945 37.7025 15.8783 36.6414 17.5561Z" fill="white"/>
</g>
<defs>
<clipPath id="clip0_2531_453">
<rect width="80" height="22" fill="white"/>
</clipPath>
</defs>
</svg>
